<?xml version="1.0" encoding="UTF-8" standalone="no"?>
<!-- Created with Inkscape (http://www.inkscape.org/) -->

<svg
   width="250mm"
   height="70mm"
   viewBox="0 0 249.99999 69.999999"
   version="1.1"
   id="svg1"
   xml:space="preserve"
   inkscape:version="1.4.2 (ebf0e940d0, 2025-05-08)"
   sodipodi:docname="logo2.svg"
   inkscape:export-filename="logo.png"
   inkscape:export-xdpi="96"
   inkscape:export-ydpi="96"
   xmlns:inkscape="http://www.inkscape.org/namespaces/inkscape"
   xmlns:sodipodi="http://sodipodi.sourceforge.net/DTD/sodipodi-0.dtd"
   xmlns="http://www.w3.org/2000/svg"
   xmlns:svg="http://www.w3.org/2000/svg"><sodipodi:namedview
     id="namedview1"
     pagecolor="#ffffff"
     bordercolor="#000000"
     borderopacity="0.25"
     inkscape:showpageshadow="2"
     inkscape:pageopacity="0.0"
     inkscape:pagecheckerboard="0"
     inkscape:deskcolor="#d1d1d1"
     inkscape:document-units="mm"
     inkscape:zoom="1.0512065"
     inkscape:cx="391.45496"
     inkscape:cy="276.82477"
     inkscape:window-width="2560"
     inkscape:window-height="1391"
     inkscape:window-x="0"
     inkscape:window-y="24"
     inkscape:window-maximized="1"
     inkscape:current-layer="layer2"
     showguides="true" /><defs
     id="defs1"><filter
       style="color-interpolation-filters:sRGB;"
       inkscape:label="Drop Shadow"
       id="filter66"
       x="-0.035294118"
       y="-0.035294118"
       width="1.0705882"
       height="1.0705882"><feFlood
         result="flood"
         in="SourceGraphic"
         flood-opacity="0.498039"
         flood-color="rgb(0,0,0)"
         id="feFlood65" /><feGaussianBlur
         result="blur"
         in="SourceGraphic"
         stdDeviation="1.000000"
         id="feGaussianBlur65" /><feOffset
         result="offset"
         in="blur"
         dx="-0.000000"
         dy="-0.000000"
         id="feOffset65" /><feComposite
         result="comp1"
         operator="in"
         in="flood"
         in2="offset"
         id="feComposite65" /><feComposite
         result="comp2"
         operator="over"
         in="SourceGraphic"
         in2="comp1"
         id="feComposite66" /></filter><filter
       style="color-interpolation-filters:sRGB;"
       inkscape:label="Drop Shadow"
       id="filter88"
       x="-0.064190279"
       y="-0.042845286"
       width="1.1551265"
       height="1.1035428"><feFlood
         result="flood"
         in="SourceGraphic"
         flood-opacity="0.498039"
         flood-color="rgb(0,0,0)"
         id="feFlood87" /><feGaussianBlur
         result="blur"
         in="SourceGraphic"
         stdDeviation="0.500000"
         id="feGaussianBlur87" /><feOffset
         result="offset"
         in="blur"
         dx="0.500000"
         dy="0.500000"
         id="feOffset87" /><feComposite
         result="comp1"
         operator="in"
         in="flood"
         in2="offset"
         id="feComposite87" /><feComposite
         result="comp2"
         operator="over"
         in="SourceGraphic"
         in2="comp1"
         id="feComposite88" /></filter><filter
       style="color-interpolation-filters:sRGB;"
       inkscape:label="Drop Shadow"
       id="filter90"
       x="-0.064190284"
       y="-0.042845269"
       width="1.1551265"
       height="1.1035427"><feFlood
         result="flood"
         in="SourceGraphic"
         flood-opacity="0.498039"
         flood-color="rgb(0,0,0)"
         id="feFlood88" /><feGaussianBlur
         result="blur"
         in="SourceGraphic"
         stdDeviation="0.500000"
         id="feGaussianBlur88" /><feOffset
         result="offset"
         in="blur"
         dx="0.500000"
         dy="0.500000"
         id="feOffset88" /><feComposite
         result="comp1"
         operator="in"
         in="flood"
         in2="offset"
         id="feComposite89" /><feComposite
         result="comp2"
         operator="over"
         in="SourceGraphic"
         in2="comp1"
         id="feComposite90" /></filter><filter
       style="color-interpolation-filters:sRGB;"
       inkscape:label="Drop Shadow"
       id="filter92"
       x="-0.064190285"
       y="-0.042845269"
       width="1.1551265"
       height="1.1035427"><feFlood
         result="flood"
         in="SourceGraphic"
         flood-opacity="0.498039"
         flood-color="rgb(0,0,0)"
         id="feFlood90" /><feGaussianBlur
         result="blur"
         in="SourceGraphic"
         stdDeviation="0.500000"
         id="feGaussianBlur90" /><feOffset
         result="offset"
         in="blur"
         dx="0.500000"
         dy="0.500000"
         id="feOffset90" /><feComposite
         result="comp1"
         operator="in"
         in="flood"
         in2="offset"
         id="feComposite91" /><feComposite
         result="comp2"
         operator="over"
         in="SourceGraphic"
         in2="comp1"
         id="feComposite92" /></filter><filter
       style="color-interpolation-filters:sRGB;"
       inkscape:label="Drop Shadow"
       id="filter94"
       x="-0.099811664"
       y="-0.099952439"
       width="1.2412115"
       height="1.2415517"><feFlood
         result="flood"
         in="SourceGraphic"
         flood-opacity="0.498039"
         flood-color="rgb(0,0,0)"
         id="feFlood92" /><feGaussianBlur
         result="blur"
         in="SourceGraphic"
         stdDeviation="0.500000"
         id="feGaussianBlur92" /><feOffset
         result="offset"
         in="blur"
         dx="0.500000"
         dy="0.500000"
         id="feOffset92" /><feComposite
         result="comp1"
         operator="in"
         in="flood"
         in2="offset"
         id="feComposite93" /><feComposite
         result="comp2"
         operator="over"
         in="SourceGraphic"
         in2="comp1"
         id="feComposite94" /></filter><filter
       style="color-interpolation-filters:sRGB"
       inkscape:label="Drop Shadow"
       id="filter88-3"
       x="-0.064190287"
       y="-0.042845269"
       width="1.1551265"
       height="1.1035427"><feFlood
         result="flood"
         in="SourceGraphic"
         flood-opacity="0.498039"
         flood-color="rgb(0,0,0)"
         id="feFlood87-3" /><feGaussianBlur
         result="blur"
         in="SourceGraphic"
         stdDeviation="0.500000"
         id="feGaussianBlur87-3" /><feOffset
         result="offset"
         in="blur"
         dx="0.500000"
         dy="0.500000"
         id="feOffset87-8" /><feComposite
         result="comp1"
         operator="in"
         in="flood"
         in2="offset"
         id="feComposite87-0" /><feComposite
         result="comp2"
         operator="over"
         in="SourceGraphic"
         in2="comp1"
         id="feComposite88-4" /></filter></defs><path
     d="m 90.21484,21.881778 v -1.016001 c -2.032002,0.06773 -3.251203,0.1016 -4.978405,0.1016 -1.693335,0 -2.912536,-0.03387 -4.944538,-0.1016 v 1.016001 l 1.625602,0.1016 c 1.557868,0.1016 1.693335,0.3048 1.727202,3.048003 v 19.845886 c 0,2.844802 -0.474134,3.79307 -1.828802,3.79307 -0.846668,0 -1.490135,-0.169334 -2.269069,-0.643467 l -0.372534,0.2032 0.169334,2.573869 0.575734,0.06773 0.237067,0.03387 c 1.151467,0.169334 3.285069,-1.083734 4.605871,-2.743203 1.659468,-2.032001 2.099735,-3.725336 2.099735,-7.823207 V 25.031381 c 0.03387,-2.743203 0.169333,-2.946403 1.727202,-3.048003 z m 11.32101,19.642685 -0.16933,2.87867 c 1.65946,-0.06773 2.16746,-0.1016 2.6416,-0.1016 0.44027,0 0.64347,0 1.79493,0.06773 l 0.7112,0.03387 v -1.016001 l -1.3208,-0.06773 c -0.88053,-0.1016 -0.9144,-0.2032 -0.94826,-1.964268 v -6.197606 c 0,-4.944538 -1.42241,-6.739473 -5.350943,-6.739473 -1.490135,0 -2.810936,0.372534 -4.097871,1.151468 l -1.794935,1.083734 v 2.201335 l 0.880534,0.237067 0.440267,-1.049867 c 0.711201,-1.591735 1.049868,-1.828802 2.607736,-1.828802 3.183472,0 4.504272,1.253068 4.605872,4.334937 l -3.352804,0.609601 c -4.605871,0.846667 -6.536273,2.438402 -6.536273,5.418672 0,2.607736 1.557868,4.131737 4.267204,4.131737 0.643468,0 1.185335,-0.1016 1.422402,-0.270933 z m 0,-1.422401 c -0.98213,1.388535 -3.115737,2.675469 -4.436538,2.675469 -1.388535,0 -2.540003,-1.219201 -2.540003,-2.709336 0,-1.253068 0.677334,-2.438402 1.659469,-3.081869 0.880534,-0.508001 2.743202,-0.982135 5.317072,-1.354668 z m 5.76686,3.28507 v 1.016001 c 2.16747,-0.06773 3.11574,-0.1016 4.19947,-0.1016 1.08374,0 2.03201,0.03387 4.19948,0.1016 v -1.016001 l -1.52401,-0.1016 c -1.18533,-0.1016 -1.25306,-0.237067 -1.25306,-2.438403 v -7.17974 c 0,-1.524001 2.2352,-3.18347 4.30107,-3.18347 2.26907,0 3.7592,1.693335 3.7592,4.301071 v 9.618143 c 1.55787,-0.06773 2.09974,-0.1016 2.67547,-0.1016 0.508,0 1.1176,0.03387 2.81094,0.1016 v -1.016001 l -1.38854,-0.1016 c -1.18533,-0.1016 -1.2192,-0.237067 -1.25307,-2.438403 v -6.536273 c 0,-3.962403 -1.86267,-5.892805 -5.65574,-5.892805 -1.25306,0 -1.96426,0.2032 -2.67546,0.846667 l -2.57387,2.235202 V 19.985243 l -0.3048,-0.270934 c -1.49014,0.575734 -2.60774,0.846668 -5.28321,1.253068 v 0.948268 h 1.89654 c 0.6096,0 0.84666,0.372533 0.84666,1.388534 v 17.54295 c -0.0339,2.201336 -0.0677,2.336803 -1.25306,2.438403 z m 19.82157,0 v 1.016001 c 2.2352,-0.06773 3.21734,-0.1016 4.16561,-0.1016 0.8128,0 2.06587,0.03387 4.84293,0.1016 v -1.016001 l -1.76106,-0.1016 c -1.55787,-0.1016 -1.59174,-0.135467 -1.59174,-2.438403 v -5.825072 c 0,-2.065868 1.35467,-3.725337 3.01414,-3.725337 1.016,0 1.7272,0.474134 2.26907,1.557868 h 0.7112 l 0.3048,-4.064003 c -0.4064,-0.237067 -0.98214,-0.372534 -1.59174,-0.372534 -1.016,0 -2.09973,0.541867 -2.81093,1.388534 l -1.89654,2.235203 v -3.48827 l -0.3048,-0.135467 c -1.65947,0.7112 -3.52214,1.185334 -5.2832,1.388534 v 0.948268 h 1.25306 c 1.38854,0.03387 1.45627,0.169334 1.49014,2.472269 v 7.620007 c -0.0339,2.201336 -0.0677,2.336803 -1.25307,2.438403 z m 26.86583,-14.969081 c -2.81094,6.570139 -3.21734,7.518407 -5.38481,12.361345 l -2.8448,-9.347209 c -0.1016,-0.3048 -0.13547,-0.575734 -0.13547,-0.846667 0,-0.508001 0.44027,-0.778935 1.28694,-0.812801 l 1.35466,-0.06773 v -0.948267 c -2.30293,0.06773 -3.2512,0.1016 -4.03013,0.1016 -0.77894,0 -1.72721,-0.03387 -4.03014,-0.1016 v 0.948267 l 0.94827,0.06773 c 0.94826,0.06773 1.38853,0.745067 2.2352,3.38667 l 3.4544,11.379211 h 1.59174 l 3.31893,-7.789341 c 0.3048,-0.677334 0.33867,-0.745068 1.76107,-3.79307 l 4.60587,11.582411 h 1.55787 c 0.3048,-0.880535 0.54187,-1.591735 0.77893,-2.235203 0.67734,-1.998135 1.42241,-4.064003 1.55787,-4.30107 l 2.30294,-5.283205 c 1.016,-2.269069 1.4224,-2.844803 2.16747,-2.946403 l 0.88053,-0.06773 v -0.948267 c -1.89653,0.06773 -2.67547,0.1016 -3.31893,0.1016 -0.64347,0 -1.42241,-0.03387 -3.31894,-0.1016 v 0.948267 l 1.15147,0.06773 c 0.84666,0.03387 1.3208,0.440267 1.3208,1.049867 0,0.372534 -0.0677,0.778935 -0.23707,1.219202 l -1.69333,4.741338 c -0.27094,0.745067 -0.57574,1.524001 -1.62561,4.19947 l -3.89467,-9.821343 c -0.47413,-1.185334 -0.7112,-1.828801 -0.98213,-2.743202 z m 27.37379,13.512813 -0.44026,-0.338667 c -2.13361,1.286934 -2.94641,1.591735 -4.40267,1.591735 -2.20134,0 -4.03014,-0.982135 -4.97841,-2.641603 -0.64347,-1.083734 -0.88053,-2.065869 -0.94827,-4.030137 h 4.94454 c 2.4384,0 3.99627,-0.135467 6.12987,-0.474134 0.0339,-0.474134 0.0677,-0.778934 0.0677,-1.185334 0,-3.894671 -2.50614,-6.434673 -6.33308,-6.434673 -1.2192,0 -2.67547,0.440267 -4.064,1.253068 -2.77707,1.625601 -3.89467,3.69147 -3.89467,7.247473 0,2.099736 0.508,3.928537 1.4224,5.215472 1.35467,1.794935 3.58987,2.844803 6.16374,2.844803 1.28693,0 2.50614,-0.270934 3.89467,-0.880534 0.88053,-0.372534 1.6256,-0.812801 1.76107,-1.016001 z m -2.6416,-6.67174 c -1.7272,0.06773 -2.54,0.1016 -3.79307,0.1016 -1.59173,0 -2.4384,-0.03387 -4.2672,-0.2032 0,-1.591735 0.13546,-2.336802 0.57573,-3.251203 0.7112,-1.456268 2.1336,-2.370669 3.7592,-2.370669 1.15147,0 2.03201,0.440267 2.64161,1.354668 0.74506,1.117601 0.98213,2.099735 1.08373,4.368804 z m 10.03407,-6.705606 -0.3048,-0.135467 c -1.65946,0.7112 -3.52213,1.185334 -5.2832,1.388534 v 0.948268 h 1.25307 c 1.38853,0.03387 1.45626,0.169334 1.49013,2.472269 v 7.620007 c 0,2.201336 -0.1016,2.336803 -1.25307,2.438403 l -1.55786,0.1016 v 1.016001 c 2.37066,-0.06773 3.3528,-0.1016 4.23333,-0.1016 0.88054,0 1.86267,0.03387 4.23334,0.1016 v -1.016001 l -1.55787,-0.1016 c -1.18533,-0.135467 -1.2192,-0.2032 -1.25307,-2.438403 z m -1.55786,-7.518408 c -1.016,0 -1.89654,0.880535 -1.89654,1.896536 0,0.982134 0.88054,1.862668 1.86267,1.862668 0.98213,0 1.89653,-0.880534 1.89653,-1.862668 0,-0.948268 -0.9144,-1.896536 -1.86266,-1.896536 z m 6.03781,18.423485 c 0,2.336802 -0.1016,3.352803 -0.37253,4.707471 1.79493,0.575734 3.08187,0.812801 4.63973,0.812801 4.43654,0 7.58615,-2.336803 7.58615,-5.689606 0,-1.083734 -0.3048,-1.828801 -0.94827,-2.506135 -0.88054,-0.846668 -1.96427,-1.253068 -4.97841,-1.828802 -2.77707,-0.541867 -3.69147,-1.219201 -3.69147,-2.77707 0,-1.693335 1.15147,-2.641602 3.25121,-2.641602 2.30293,0 3.99627,1.185334 3.99627,2.777069 v 0.778934 h 0.94826 c 0.0339,-1.964268 0.0677,-2.777069 0.16934,-3.826937 -1.8288,-0.6096 -2.98027,-0.846667 -4.40267,-0.846667 -3.92854,0 -6.33308,1.862668 -6.33308,4.910671 0,1.659468 0.74507,2.743203 2.30294,3.48827 0.9144,0.406401 2.70934,0.948268 5.01227,1.456268 1.524,0.338667 2.16747,1.016001 2.16747,2.336803 0,1.828801 -1.69334,3.115736 -4.09787,3.115736 -2.47227,0 -4.23334,-1.185335 -4.23334,-2.87867 v -1.388534 z m 27.37381,2.472269 -0.44027,-0.338667 c -2.1336,1.286934 -2.9464,1.591735 -4.40267,1.591735 -2.20134,0 -4.03014,-0.982135 -4.97841,-2.641603 -0.64346,-1.083734 -0.88053,-2.065869 -0.94826,-4.030137 h 4.94453 c 2.43841,0 3.99627,-0.135467 6.12988,-0.474134 0.0339,-0.474134 0.0677,-0.778934 0.0677,-1.185334 0,-3.894671 -2.50614,-6.434673 -6.33307,-6.434673 -1.2192,0 -2.67547,0.440267 -4.06401,1.253068 -2.77707,1.625601 -3.89467,3.69147 -3.89467,7.247473 0,2.099736 0.508,3.928537 1.4224,5.215472 1.35467,1.794935 3.58987,2.844803 6.16374,2.844803 1.28694,0 2.50614,-0.270934 3.89467,-0.880534 0.88054,-0.372534 1.62561,-0.812801 1.76107,-1.016001 z m -2.64161,-6.67174 c -1.7272,0.06773 -2.54,0.1016 -3.79307,0.1016 -1.59173,0 -2.4384,-0.03387 -4.2672,-0.2032 0,-1.591735 0.13547,-2.336802 0.57573,-3.251203 0.7112,-1.456268 2.13361,-2.370669 3.75921,-2.370669 1.15146,0 2.032,0.440267 2.6416,1.354668 0.74507,1.117601 0.98213,2.099735 1.08373,4.368804 z m 4.37835,8.128008 v 1.016001 c 2.2352,-0.06773 3.21733,-0.1016 4.1656,-0.1016 0.8128,0 2.06587,0.03387 4.84294,0.1016 v -1.016001 l -1.76107,-0.1016 c -1.55787,-0.1016 -1.59173,-0.135467 -1.59173,-2.438403 v -5.825072 c 0,-2.065868 1.35466,-3.725337 3.01413,-3.725337 1.016,0 1.7272,0.474134 2.26907,1.557868 h 0.7112 l 0.3048,-4.064003 c -0.4064,-0.237067 -0.98213,-0.372534 -1.59173,-0.372534 -1.016,0 -2.09974,0.541867 -2.81094,1.388534 l -1.89653,2.235203 v -3.48827 l -0.3048,-0.135467 c -1.65947,0.7112 -3.52214,1.185334 -5.28321,1.388534 v 0.948268 h 1.25307 c 1.38853,0.03387 1.45627,0.169334 1.49013,2.472269 v 7.620007 c -0.0339,2.201336 -0.0677,2.336803 -1.25307,2.438403 z"
     id="text7"
     style="font-size:33.8667px;line-height:1;font-family:P052;-inkscape-font-specification:P052;letter-spacing:-0.396875px;word-spacing:-0.0211667px;stroke-width:0"
     inkscape:label="Kalender"
     aria-label="Jahrweiser" /><g
     inkscape:groupmode="layer"
     id="layer2"
     inkscape:label="Logo"
     style="display:inline"
     transform="translate(4.2403564,-113.80715)"><circle
       style="display:inline;fill:#ffe0c6;fill-opacity:1;stroke-width:0;filter:url(#filter66)"
       id="path6"
       cx="30.759644"
       cy="148.80714"
       r="34"
       inkscape:label="Circle" /><path
       d="m 48.363928,160.54278 h 0.711201 l 1.557868,-0.94826 c -1.320801,-0.1016 -4.165604,-0.16934 -7.620007,-0.16934 l -2.065869,1.04987 v 0.27093 c 1.727202,-0.1016 3.38667,-0.16933 4.944538,-0.2032 l -1.219201,4.87681 c -1.456268,1.35467 -3.454403,2.26907 -5.012272,2.26907 -2.506135,0 -4.064004,-1.96427 -4.064004,-5.04614 0,-6.60401 4.436538,-12.76775 9.211743,-12.76775 1.388534,0 2.573869,0.57574 3.217336,1.59174 0.440267,0.67733 0.609601,1.25307 0.812801,2.67547 l 2.506136,-2.81094 c -0.643468,-1.9304 -1.862669,-2.67547 -4.470405,-2.67547 -3.725337,0 -7.044273,1.524 -9.753609,4.43654 -2.743203,2.9464 -4.470404,7.07814 -4.470404,10.66801 0,3.28507 1.794935,5.31707 4.707471,5.31707 2.099735,0 3.860804,-0.508 6.908806,-2.06587 -0.508,2.03201 -1.117601,4.23334 -1.422401,4.97841 -0.677334,1.8288 -1.659468,2.57387 -3.454403,2.57387 -0.982134,0 -2.607736,-0.13547 -3.657604,-0.3048 l -1.422401,2.2352 c 1.219201,0.13547 1.727202,0.16933 2.438402,0.16933 2.709336,0 5.012272,-1.2192 7.247474,-3.79307 1.456268,-1.69333 2.065869,-3.11573 3.048003,-7.04427 z"
       id="text1-4-7"
       style="font-style:italic;font-weight:500;font-size:33.8667px;line-height:1;font-family:Z003;-inkscape-font-specification:'Z003 Medium Italic';letter-spacing:-0.396875px;word-spacing:-0.0211667px;fill:#7e22ce;stroke-width:0;filter:url(#filter90)"
       inkscape:label="G3"
       aria-label="G" /><path
       d="m 23.473791,163.83818 c 0.982132,0.0847 1.286931,0.11854 1.473197,0.16934 0.254,0.0677 0.457199,0.6604 0.457199,1.35466 0,0.6096 -0.203199,1.10066 -0.812798,1.91346 -1.507064,-1.54093 -2.506128,-2.79399 -3.454393,-4.33492 0.711198,-0.52493 1.015998,-0.77893 1.354664,-1.1176 0.745065,-0.79586 1.083731,-1.524 1.083731,-2.30293 0,-0.9652 -0.609599,-1.524 -1.659463,-1.524 -0.457199,0 -0.812799,0.11854 -1.117598,0.38947 l -1.151465,1.016 c -0.253999,0.23706 -0.406399,0.74506 -0.406399,1.45626 0,0.7112 0.1524,1.33773 0.507999,2.25213 -1.862663,1.08373 -2.624661,2.15053 -2.624661,3.65759 0,1.8796 1.456264,3.23426 3.48826,3.23426 1.23613,0 2.201329,-0.37253 3.420526,-1.30386 0.982132,0.762 2.252129,1.30386 3.064927,1.30386 0.3048,0 0.474133,-0.0339 0.575733,-0.1016 l 1.473197,-1.06679 -0.1016,-0.42334 c -0.507999,0.254 -0.745065,0.32174 -1.032931,0.32174 -0.829732,0 -1.473197,-0.23707 -2.912528,-1.0668 0.999065,-1.1176 1.371597,-1.9304 1.371597,-2.99719 0,-0.27094 -0.01693,-0.42334 -0.08467,-0.6604 1.202264,0.0508 1.710263,0.1016 2.370662,0.2032 0,-0.42334 0.0508,-0.7112 0.203199,-1.2192 l -3.28506,0.11853 h -0.287866 c -0.237066,0 -0.761998,-0.0169 -1.354664,-0.0339 z m -3.471326,-0.13546 c 0.761998,1.35466 1.574797,2.43839 3.505193,4.57199 -0.795865,0.54186 -1.422397,0.77893 -2.099729,0.77893 -1.523997,0 -2.810928,-1.33773 -2.810928,-2.92946 0,-0.98213 0.372532,-1.60866 1.405464,-2.42146 z m 0.863598,-1.33773 c -0.321733,-0.93134 -0.440266,-1.54093 -0.440266,-2.1336 0,-0.88053 0.3556,-1.33773 1.032932,-1.33773 0.558798,0 0.982131,0.47413 0.982131,1.13453 0,0.74507 -0.558799,1.5748 -1.574797,2.3368 z"
       id="text1-4-7-2"
       style="font-size:16.9333px;line-height:1;font-family:P052;-inkscape-font-specification:P052;letter-spacing:-0.396875px;word-spacing:-0.0211667px;fill:#1e293b;stroke-width:0;filter:url(#filter94)"
       inkscape:label="&amp;"
       aria-label="&amp;" /><text
       xml:space="preserve"
       style="font-style:italic;font-variant:normal;font-weight:500;font-stretch:normal;font-size:33.8667px;line-height:1;font-family:Z003;-inkscape-font-specification:'Z003 Medium Italic';text-align:start;letter-spacing:-0.396875px;word-spacing:-0.0211667px;writing-mode:lr-tb;direction:ltr;text-anchor:start;display:none;fill:#7e22ce;fill-opacity:1;stroke-width:0;filter:url(#filter88)"
       x="24.750074"
       y="141.64825"
       id="text1-4"
       inkscape:label="G2"><tspan
         sodipodi:role="line"
         style="font-style:italic;font-variant:normal;font-weight:500;font-stretch:normal;font-size:33.8667px;font-family:Z003;-inkscape-font-specification:'Z003 Medium Italic';fill:#7e22ce;fill-opacity:1;stroke-width:0"
         x="24.750074"
         y="141.64825"
         id="tspan5-9">G</tspan></text><path
       d="m 44.532162,133.50967 h 0.711201 l 1.557868,-0.94827 c -1.320801,-0.1016 -4.165604,-0.16933 -7.620008,-0.16933 l -2.065868,1.04987 v 0.27093 c 1.727201,-0.1016 3.38667,-0.16933 4.944538,-0.2032 l -1.219201,4.87681 c -1.456268,1.35466 -3.454404,2.26907 -5.012272,2.26907 -2.506135,0 -4.064004,-1.96427 -4.064004,-5.04614 0,-6.60401 4.436538,-12.76775 9.211743,-12.76775 1.388534,0 2.573869,0.57574 3.217336,1.59174 0.440267,0.67733 0.609601,1.25306 0.812801,2.67547 l 2.506135,-2.81094 c -0.643467,-1.9304 -1.862668,-2.67547 -4.470404,-2.67547 -3.725337,0 -7.044273,1.524 -9.753609,4.43654 -2.743203,2.9464 -4.470404,7.07814 -4.470404,10.66801 0,3.28507 1.794935,5.31707 4.707471,5.31707 2.099735,0 3.860803,-0.508 6.908806,-2.06587 -0.508,2.032 -1.117601,4.23334 -1.422401,4.97841 -0.677334,1.8288 -1.659468,2.57387 -3.454403,2.57387 -0.982135,0 -2.607736,-0.13547 -3.657604,-0.3048 l -1.422401,2.2352 c 1.219201,0.13546 1.727201,0.16933 2.438402,0.16933 2.709336,0 5.012272,-1.2192 7.247474,-3.79307 1.456268,-1.69333 2.065868,-3.11574 3.048003,-7.04427 z"
       id="text1-4-8"
       style="font-style:italic;font-weight:500;font-size:33.8667px;line-height:1;font-family:Z003;-inkscape-font-specification:'Z003 Medium Italic';letter-spacing:-0.396875px;word-spacing:-0.0211667px;fill:#7e22ce;stroke-width:0;filter:url(#filter88-3)"
       inkscape:label="G2"
       aria-label="G" /><path
       d="m 20.189846,143.31735 h 0.7112 l 1.557869,-0.94827 c -1.320802,-0.1016 -4.165604,-0.16933 -7.620008,-0.16933 l -2.065868,1.04987 v 0.27093 c 1.727201,-0.1016 3.38667,-0.16933 4.944538,-0.2032 l -1.219201,4.87681 c -1.456269,1.35466 -3.454404,2.26906 -5.012272,2.26906 -2.5061357,0 -4.0640039,-1.96426 -4.0640039,-5.04613 0,-6.60401 4.4365379,-12.76775 9.2117419,-12.76775 1.388535,0 2.573869,0.57573 3.217337,1.59174 0.440267,0.67733 0.6096,1.25306 0.812801,2.67546 l 2.506135,-2.81093 c -0.643467,-1.9304 -1.862668,-2.67547 -4.470404,-2.67547 -3.725337,0 -7.044273,1.524 -9.7536094,4.43654 -2.7432026,2.9464 -4.4704043,7.07814 -4.4704043,10.66801 0,3.28507 1.7949351,5.31707 4.7074712,5.31707 2.0997355,0 3.8608035,-0.508 6.9088065,-2.06587 -0.508,2.032 -1.117601,4.23334 -1.422401,4.9784 -0.677334,1.82881 -1.659468,2.57387 -3.454404,2.57387 -0.982134,0 -2.6077354,-0.13546 -3.6576031,-0.3048 l -1.4224013,2.23521 c 1.2192011,0.13546 1.7272016,0.16933 2.4384023,0.16933 2.7093361,0 5.0122711,-1.2192 7.2474741,-3.79307 1.456268,-1.69334 2.065868,-3.11574 3.048002,-7.04427 z"
       id="text1-4-5"
       style="font-style:italic;font-weight:500;font-size:33.8667px;line-height:1;font-family:Z003;-inkscape-font-specification:'Z003 Medium Italic';letter-spacing:-0.396875px;word-spacing:-0.0211667px;fill:#7e22ce;stroke-width:0;filter:url(#filter92)"
       inkscape:label="G1"
       aria-label="G" /></g></svg>
