<?xml version="1.0" encoding="UTF-8" standalone="no"?>
<!-- Created with Inkscape (http://www.inkscape.org/) -->

<svg
   width="72.800003mm"
   height="72.800003mm"
   viewBox="0 0 72.800001 72.800002"
   version="1.1"
   id="svg1"
   xml:space="preserve"
   inkscape:version="1.4.2 (ebf0e940d0, 2025-05-08)"
   sodipodi:docname="logo-small2.svg"
   inkscape:export-filename="logo.png"
   inkscape:export-xdpi="96"
   inkscape:export-ydpi="96"
   xmlns:inkscape="http://www.inkscape.org/namespaces/inkscape"
   xmlns:sodipodi="http://sodipodi.sourceforge.net/DTD/sodipodi-0.dtd"
   xmlns="http://www.w3.org/2000/svg"
   xmlns:svg="http://www.w3.org/2000/svg"><sodipodi:namedview
     id="namedview1"
     pagecolor="#ffffff"
     bordercolor="#000000"
     borderopacity="0.25"
     inkscape:showpageshadow="2"
     inkscape:pageopacity="0.0"
     inkscape:pagecheckerboard="0"
     inkscape:deskcolor="#d1d1d1"
     inkscape:document-units="mm"
     inkscape:zoom="1.0512065"
     inkscape:cx="391.45496"
     inkscape:cy="275.87348"
     inkscape:window-width="2560"
     inkscape:window-height="1391"
     inkscape:window-x="0"
     inkscape:window-y="24"
     inkscape:window-maximized="1"
     inkscape:current-layer="layer2"
     showguides="true"><inkscape:page
       x="-2.1957521e-17"
       y="0"
       width="72.799995"
       height="72.800003"
       id="page2"
       margin="0"
       bleed="0" /></sodipodi:namedview><defs
     id="defs1"><filter
       style="color-interpolation-filters:sRGB"
       inkscape:label="Drop Shadow"
       id="filter66"
       x="-0.035294118"
       y="-0.035294118"
       width="1.0705882"
       height="1.0705882"><feFlood
         result="flood"
         in="SourceGraphic"
         flood-opacity="0.498039"
         flood-color="rgb(0,0,0)"
         id="feFlood65" /><feGaussianBlur
         result="blur"
         in="SourceGraphic"
         stdDeviation="1.000000"
         id="feGaussianBlur65" /><feOffset
         result="offset"
         in="blur"
         dx="-0.000000"
         dy="-0.000000"
         id="feOffset65" /><feComposite
         result="comp1"
         operator="in"
         in="flood"
         in2="offset"
         id="feComposite65" /><feComposite
         result="comp2"
         operator="over"
         in="SourceGraphic"
         in2="comp1"
         id="feComposite66" /></filter><filter
       style="color-interpolation-filters:sRGB"
       inkscape:label="Drop Shadow"
       id="filter90"
       x="-0.064190284"
       y="-0.042845269"
       width="1.1551265"
       height="1.1035427"><feFlood
         result="flood"
         in="SourceGraphic"
         flood-opacity="0.498039"
         flood-color="rgb(0,0,0)"
         id="feFlood88" /><feGaussianBlur
         result="blur"
         in="SourceGraphic"
         stdDeviation="0.500000"
         id="feGaussianBlur88" /><feOffset
         result="offset"
         in="blur"
         dx="0.500000"
         dy="0.500000"
         id="feOffset88" /><feComposite
         result="comp1"
         operator="in"
         in="flood"
         in2="offset"
         id="feComposite89" /><feComposite
         result="comp2"
         operator="over"
         in="SourceGraphic"
         in2="comp1"
         id="feComposite90" /></filter><filter
       style="color-interpolation-filters:sRGB"
       inkscape:label="Drop Shadow"
       id="filter92"
       x="-0.064190285"
       y="-0.042845269"
       width="1.1551265"
       height="1.1035427"><feFlood
         result="flood"
         in="SourceGraphic"
         flood-opacity="0.498039"
         flood-color="rgb(0,0,0)"
         id="feFlood90" /><feGaussianBlur
         result="blur"
         in="SourceGraphic"
         stdDeviation="0.500000"
         id="feGaussianBlur90" /><feOffset
         result="offset"
         in="blur"
         dx="0.500000"
         dy="0.500000"
         id="feOffset90" /><feComposite
         result="comp1"
         operator="in"
         in="flood"
         in2="offset"
         id="feComposite91" /><feComposite
         result="comp2"
         operator="over"
         in="SourceGraphic"
         in2="comp1"
         id="feComposite92" /></filter><filter
       style="color-interpolation-filters:sRGB"
       inkscape:label="Drop Shadow"
       id="filter94"
       x="-0.099811664"
       y="-0.099952439"
       width="1.2412115"
       height="1.2415517"><feFlood
         result="flood"
         in="SourceGraphic"
         flood-opacity="0.498039"
         flood-color="rgb(0,0,0)"
         id="feFlood92" /><feGaussianBlur
         result="blur"
         in="SourceGraphic"
         stdDeviation="0.500000"
         id="feGaussianBlur92" /><feOffset
         result="offset"
         in="blur"
         dx="0.500000"
         dy="0.500000"
         id="feOffset92" /><feComposite
         result="comp1"
         operator="in"
         in="flood"
         in2="offset"
         id="feComposite93" /><feComposite
         result="comp2"
         operator="over"
         in="SourceGraphic"
         in2="comp1"
         id="feComposite94" /></filter><filter
       style="color-interpolation-filters:sRGB"
       inkscape:label="Drop Shadow"
       id="filter88-3"
       x="-0.064190287"
       y="-0.042845269"
       width="1.1551265"
       height="1.1035427"><feFlood
         result="flood"
         in="SourceGraphic"
         flood-opacity="0.498039"
         flood-color="rgb(0,0,0)"
         id="feFlood87-3" /><feGaussianBlur
         result="blur"
         in="SourceGraphic"
         stdDeviation="0.500000"
         id="feGaussianBlur87-3" /><feOffset
         result="offset"
         in="blur"
         dx="0.500000"
         dy="0.500000"
         id="feOffset87-8" /><feComposite
         result="comp1"
         operator="in"
         in="flood"
         in2="offset"
         id="feComposite87-0" /><feComposite
         result="comp2"
         operator="over"
         in="SourceGraphic"
         in2="comp1"
         id="feComposite88-4" /></filter></defs><g
     inkscape:groupmode="layer"
     id="layer2"
     inkscape:label="Logo"
     style="display:inline"
     transform="translate(5.6403566,-112.40714)"
     inkscape:export-filename="logo-small.svg"
     inkscape:export-xdpi="600"
     inkscape:export-ydpi="600"><circle
       style="display:inline;fill:#e8b890;fill-opacity:1;stroke-width:0;filter:url(#filter66)"
       id="path6"
       cx="30.759644"
       cy="148.80714"
       r="34"
       inkscape:label="Circle" /><path
       d="m 48.363928,160.54278 h 0.711201 l 1.557868,-0.94826 c -1.320801,-0.1016 -4.165604,-0.16934 -7.620007,-0.16934 l -2.065869,1.04987 v 0.27093 c 1.727202,-0.1016 3.38667,-0.16933 4.944538,-0.2032 l -1.219201,4.87681 c -1.456268,1.35467 -3.454403,2.26907 -5.012272,2.26907 -2.506135,0 -4.064004,-1.96427 -4.064004,-5.04614 0,-6.60401 4.436538,-12.76775 9.211743,-12.76775 1.388534,0 2.573869,0.57574 3.217336,1.59174 0.440267,0.67733 0.609601,1.25307 0.812801,2.67547 l 2.506136,-2.81094 c -0.643468,-1.9304 -1.862669,-2.67547 -4.470405,-2.67547 -3.725337,0 -7.044273,1.524 -9.753609,4.43654 -2.743203,2.9464 -4.470404,7.07814 -4.470404,10.66801 0,3.28507 1.794935,5.31707 4.707471,5.31707 2.099735,0 3.860804,-0.508 6.908806,-2.06587 -0.508,2.03201 -1.117601,4.23334 -1.422401,4.97841 -0.677334,1.8288 -1.659468,2.57387 -3.454403,2.57387 -0.982134,0 -2.607736,-0.13547 -3.657604,-0.3048 l -1.422401,2.2352 c 1.219201,0.13547 1.727202,0.16933 2.438402,0.16933 2.709336,0 5.012272,-1.2192 7.247474,-3.79307 1.456268,-1.69333 2.065869,-3.11573 3.048003,-7.04427 z"
       id="text1-4-7"
       style="font-style:italic;font-weight:500;font-size:33.8667px;line-height:1;font-family:Z003;-inkscape-font-specification:'Z003 Medium Italic';letter-spacing:-0.396875px;word-spacing:-0.0211667px;fill:#590080;stroke-width:0;filter:url(#filter90)"
       inkscape:label="G3"
       aria-label="G" /><path
       d="m 23.473791,163.83818 c 0.982132,0.0847 1.286931,0.11854 1.473197,0.16934 0.254,0.0677 0.457199,0.6604 0.457199,1.35466 0,0.6096 -0.203199,1.10066 -0.812798,1.91346 -1.507064,-1.54093 -2.506128,-2.79399 -3.454393,-4.33492 0.711198,-0.52493 1.015998,-0.77893 1.354664,-1.1176 0.745065,-0.79586 1.083731,-1.524 1.083731,-2.30293 0,-0.9652 -0.609599,-1.524 -1.659463,-1.524 -0.457199,0 -0.812799,0.11854 -1.117598,0.38947 l -1.151465,1.016 c -0.253999,0.23706 -0.406399,0.74506 -0.406399,1.45626 0,0.7112 0.1524,1.33773 0.507999,2.25213 -1.862663,1.08373 -2.624661,2.15053 -2.624661,3.65759 0,1.8796 1.456264,3.23426 3.48826,3.23426 1.23613,0 2.201329,-0.37253 3.420526,-1.30386 0.982132,0.762 2.252129,1.30386 3.064927,1.30386 0.3048,0 0.474133,-0.0339 0.575733,-0.1016 l 1.473197,-1.06679 -0.1016,-0.42334 c -0.507999,0.254 -0.745065,0.32174 -1.032931,0.32174 -0.829732,0 -1.473197,-0.23707 -2.912528,-1.0668 0.999065,-1.1176 1.371597,-1.9304 1.371597,-2.99719 0,-0.27094 -0.01693,-0.42334 -0.08467,-0.6604 1.202264,0.0508 1.710263,0.1016 2.370662,0.2032 0,-0.42334 0.0508,-0.7112 0.203199,-1.2192 l -3.28506,0.11853 h -0.287866 c -0.237066,0 -0.761998,-0.0169 -1.354664,-0.0339 z m -3.471326,-0.13546 c 0.761998,1.35466 1.574797,2.43839 3.505193,4.57199 -0.795865,0.54186 -1.422397,0.77893 -2.099729,0.77893 -1.523997,0 -2.810928,-1.33773 -2.810928,-2.92946 0,-0.98213 0.372532,-1.60866 1.405464,-2.42146 z m 0.863598,-1.33773 c -0.321733,-0.93134 -0.440266,-1.54093 -0.440266,-2.1336 0,-0.88053 0.3556,-1.33773 1.032932,-1.33773 0.558798,0 0.982131,0.47413 0.982131,1.13453 0,0.74507 -0.558799,1.5748 -1.574797,2.3368 z"
       id="text1-4-7-2"
       style="font-size:16.9333px;line-height:1;font-family:P052;-inkscape-font-specification:P052;letter-spacing:-0.396875px;word-spacing:-0.0211667px;stroke-width:0;filter:url(#filter94)"
       inkscape:label="&amp;"
       aria-label="&amp;" /><path
       d="m 44.532162,133.50967 h 0.711201 l 1.557868,-0.94827 c -1.320801,-0.1016 -4.165604,-0.16933 -7.620008,-0.16933 l -2.065868,1.04987 v 0.27093 c 1.727201,-0.1016 3.38667,-0.16933 4.944538,-0.2032 l -1.219201,4.87681 c -1.456268,1.35466 -3.454404,2.26907 -5.012272,2.26907 -2.506135,0 -4.064004,-1.96427 -4.064004,-5.04614 0,-6.60401 4.436538,-12.76775 9.211743,-12.76775 1.388534,0 2.573869,0.57574 3.217336,1.59174 0.440267,0.67733 0.609601,1.25306 0.812801,2.67547 l 2.506135,-2.81094 c -0.643467,-1.9304 -1.862668,-2.67547 -4.470404,-2.67547 -3.725337,0 -7.044273,1.524 -9.753609,4.43654 -2.743203,2.9464 -4.470404,7.07814 -4.470404,10.66801 0,3.28507 1.794935,5.31707 4.707471,5.31707 2.099735,0 3.860803,-0.508 6.908806,-2.06587 -0.508,2.032 -1.117601,4.23334 -1.422401,4.97841 -0.677334,1.8288 -1.659468,2.57387 -3.454403,2.57387 -0.982135,0 -2.607736,-0.13547 -3.657604,-0.3048 l -1.422401,2.2352 c 1.219201,0.13546 1.727201,0.16933 2.438402,0.16933 2.709336,0 5.012272,-1.2192 7.247474,-3.79307 1.456268,-1.69333 2.065868,-3.11574 3.048003,-7.04427 z"
       id="text1-4-8"
       style="font-style:italic;font-weight:500;font-size:33.8667px;line-height:1;font-family:Z003;-inkscape-font-specification:'Z003 Medium Italic';letter-spacing:-0.396875px;word-spacing:-0.0211667px;fill:#540080;stroke-width:0;filter:url(#filter88-3)"
       inkscape:label="G2"
       aria-label="G" /><path
       d="m 20.189846,143.31735 h 0.7112 l 1.557869,-0.94827 c -1.320802,-0.1016 -4.165604,-0.16933 -7.620008,-0.16933 l -2.065868,1.04987 v 0.27093 c 1.727201,-0.1016 3.38667,-0.16933 4.944538,-0.2032 l -1.219201,4.87681 c -1.456269,1.35466 -3.454404,2.26906 -5.012272,2.26906 -2.5061357,0 -4.0640039,-1.96426 -4.0640039,-5.04613 0,-6.60401 4.4365379,-12.76775 9.2117419,-12.76775 1.388535,0 2.573869,0.57573 3.217337,1.59174 0.440267,0.67733 0.6096,1.25306 0.812801,2.67546 l 2.506135,-2.81093 c -0.643467,-1.9304 -1.862668,-2.67547 -4.470404,-2.67547 -3.725337,0 -7.044273,1.524 -9.7536094,4.43654 -2.7432026,2.9464 -4.4704043,7.07814 -4.4704043,10.66801 0,3.28507 1.7949351,5.31707 4.7074712,5.31707 2.0997355,0 3.8608035,-0.508 6.9088065,-2.06587 -0.508,2.032 -1.117601,4.23334 -1.422401,4.9784 -0.677334,1.82881 -1.659468,2.57387 -3.454404,2.57387 -0.982134,0 -2.6077354,-0.13546 -3.6576031,-0.3048 l -1.4224013,2.23521 c 1.2192011,0.13546 1.7272016,0.16933 2.4384023,0.16933 2.7093361,0 5.0122711,-1.2192 7.2474741,-3.79307 1.456268,-1.69334 2.065868,-3.11574 3.048002,-7.04427 z"
       id="text1-4-5"
       style="font-style:italic;font-weight:500;font-size:33.8667px;line-height:1;font-family:Z003;-inkscape-font-specification:'Z003 Medium Italic';letter-spacing:-0.396875px;word-spacing:-0.0211667px;fill:#540080;stroke-width:0;filter:url(#filter92)"
       inkscape:label="G1"
       aria-label="G" /></g></svg>
